<svg width="376" height="476" viewBox="0 0 376 476" fill="none" xmlns="http://www.w3.org/2000/svg">
<path d="M94.7119 41.1924C126.712 23.1924 153.712 41.6924 163.212 53.1924C160.712 92.6924 143.612 185.092 95.2119 238.692C46.8119 292.292 5.71191 250.692 1.21192 222.692C-1.28808 211.359 -1.58808 186.292 17.2119 176.692C36.0119 167.092 45.7119 134.359 48.2119 119.192C53.4119 77.1924 81.3786 49.6924 94.7119 41.1924Z" fill="#4F2F17"/>
<path d="M272.212 28.6927C213.012 -28.1073 151.545 12.3594 128.212 39.6927C165.545 96.3593 244.612 215.292 262.212 237.692C279.812 260.092 322.879 255.692 342.212 250.692C387.812 230.692 373.212 195.026 360.212 179.692C347.412 170.892 339.545 137.359 337.212 121.692C328.412 81.6924 290.212 43.0259 272.212 28.6927Z" fill="#4F2F17"/>
<path d="M306.712 67.1924C310.712 70.5257 319.712 75.1924 323.712 67.1924" stroke="#4F2F17" stroke-width="5" stroke-linecap="round"/>
<path d="M349.212 174.692C353.212 178.026 362.212 182.692 366.212 174.692" stroke="#4F2F17" stroke-width="5" stroke-linecap="round"/>
<rect x="164.212" y="225.692" width="33" height="60" rx="16" fill="#E8BA97"/>
<rect x="84.2119" y="81.6924" width="192" height="174" rx="65" fill="#F0C4A2"/>
<path d="M96.6564 159.757C133.101 151.115 169.616 103.821 183.318 81.2546C178.785 61.3969 156.99 72.4836 146.659 80.5092C132.785 106.277 97.6671 125.142 81.8424 131.353C54.214 135.183 67.0923 156.315 64.7215 153.018C68.4714 162.314 87.5739 161.384 96.6564 159.757Z" fill="#4F2F17"/>
<path d="M82.5537 141.77C119.384 134.958 158.215 89.5465 173.027 67.6922C169.491 47.633 147.169 57.6177 136.45 65.1175C121.307 90.1609 85.2914 107.249 69.1764 112.662C41.3912 115.108 53.1984 136.856 50.9952 133.445C54.2763 142.917 73.4013 142.942 82.5537 141.77Z" fill="#4F2F17"/>
<path d="M85.7451 114.638C117.525 113.283 155.571 79.7056 170.622 63.0865C170.029 45.7983 150.073 51.5444 140.169 56.5784C124.462 75.84 92.1462 85.9333 77.9519 88.5722C54.2963 87.3299 61.643 107.02 60.1953 103.891C61.8298 112.245 77.9096 114.537 85.7451 114.638Z" fill="#4F2F17"/>
<path d="M53.2119 130.692C52.2119 140.192 43.9119 157.892 40.7119 162.692" stroke="#6F4627" stroke-width="5" stroke-linecap="round"/>
<path d="M29.2119 174.192C22.7119 178.526 9.31191 184.592 7.71191 174.192" stroke="#4F2F17" stroke-width="5" stroke-linecap="round"/>
<path d="M128.212 41.6929C115.212 39.0263 67.2119 50.1923 58.2119 117.692" stroke="#6F4627" stroke-width="5" stroke-linecap="round"/>
<path d="M282.481 159.033C239.345 158.153 186.742 113.768 165.833 91.6857C166.115 68.2247 193.349 75.4151 206.931 81.9429C228.811 107.589 272.936 120.301 292.263 123.452C324.303 121.055 314.934 147.977 316.803 143.689C314.838 155.067 293.103 158.659 282.481 159.033Z" fill="#4F2F17"/>
<path d="M283.281 136.749C240.212 139.289 184.257 99.2119 161.664 78.8558C160.086 55.4462 187.804 60.456 201.861 65.8871C225.704 89.7185 270.697 98.8949 290.214 100.504C321.963 95.5755 314.757 123.155 316.28 118.733C315.223 130.231 293.841 135.534 283.281 136.749Z" fill="#4F2F17"/>
<path d="M273.514 113.857C235.352 116.797 185.081 82.1404 164.717 64.4448C162.944 43.7056 187.61 47.7075 200.165 52.3008C221.694 73.0591 261.749 80.4814 279.085 81.5977C307.168 76.7198 301.216 101.298 302.497 97.3512C301.742 107.567 282.861 112.612 273.514 113.857Z" fill="#4F2F17"/>
<path d="M212.712 9.19251C221.545 6.69251 245.512 8.49251 270.712 35.6925C278.879 43.3591 296.512 61.1924 301.712 71.1924" stroke="#6F4627" stroke-width="5" stroke-linecap="round"/>
<circle cx="138.712" cy="183.192" r="7.5" fill="black"/>
<circle cx="141.712" cy="180.192" r="1.5" fill="white"/>
<circle cx="221.712" cy="183.192" r="7.5" fill="black"/>
<circle cx="224.712" cy="180.192" r="1.5" fill="white"/>
<rect x="129.182" y="397.692" width="20" height="60" rx="10" fill="#F0C4A2"/>
<rect x="166.212" y="439.818" width="36" height="55" rx="18" transform="rotate(90 166.212 439.818)" fill="#FAFAFA"/>
<mask id="mask0_116_110" style="mask-type:alpha" maskUnits="userSpaceOnUse" x="111" y="439" width="56" height="37">
<rect x="166.212" y="439.818" width="36" height="55" rx="18" transform="rotate(90 166.212 439.818)" fill="#FAFAFA"/>
</mask>
<g mask="url(#mask0_116_110)">
<rect x="111.212" y="467.818" width="55" height="10" fill="#B7AF9A"/>
<path d="M134.212 443.318H144.212" stroke="#B7AF9A" stroke-width="2" stroke-linecap="round"/>
<path d="M134.212 446.818H144.212" stroke="#B7AF9A" stroke-width="2" stroke-linecap="round"/>
</g>
<rect x="212.182" y="397.692" width="20" height="60" rx="10" fill="#F0C4A2"/>
<rect x="249.212" y="439.818" width="36" height="55" rx="18" transform="rotate(90 249.212 439.818)" fill="#FAFAFA"/>
<mask id="mask1_116_110" style="mask-type:alpha" maskUnits="userSpaceOnUse" x="194" y="439" width="56" height="37">
<rect x="249.212" y="439.818" width="36" height="55" rx="18" transform="rotate(90 249.212 439.818)" fill="#FAFAFA"/>
</mask>
<g mask="url(#mask1_116_110)">
<rect x="194.212" y="467.818" width="55" height="10" fill="#B7AF9A"/>
<path d="M217.212 443.318H227.212" stroke="#B7AF9A" stroke-width="2" stroke-linecap="round"/>
<path d="M217.212 446.818H227.212" stroke="#B7AF9A" stroke-width="2" stroke-linecap="round"/>
</g>
<g opacity="0.3">
<ellipse cx="116.212" cy="198.192" rx="12" ry="7.5" fill="#D48B99"/>
<ellipse cx="241.212" cy="198.192" rx="12" ry="7.5" fill="#D48B99"/>
</g>
<path d="M134.212 207.692C149.379 214.359 188.912 223.692 225.712 207.692" stroke="black" stroke-width="5" stroke-linecap="round"/>
<rect x="75.2119" y="168.692" width="10" height="30" rx="5" fill="#D9AB88"/>
<rect x="276.212" y="168.692" width="10" height="30" rx="5" fill="#D9AB88"/>
<rect x="96.2119" y="309.692" width="168" height="99" rx="30" fill="#AF8769"/>
<rect x="96.2119" y="309.692" width="168" height="72" rx="10" fill="#A57A58"/>
<path d="M179.712 387.692L192.269 408.692H167.155L179.712 387.692Z" fill="#906C50"/>
<rect x="67.2544" y="303.816" width="20" height="40.3562" rx="10" transform="rotate(20.0475 67.2544 303.816)" fill="#F0C4A2"/>
<rect x="52.2114" y="337.139" width="20" height="40.3562" rx="10" transform="rotate(-45 52.2114 337.139)" fill="#F0C4A2"/>
<rect x="62.2117" y="359.866" width="38" height="46" rx="19" transform="rotate(-45 62.2117 359.866)" fill="#F0C4A2"/>
<rect width="20" height="41.2359" rx="10" transform="matrix(-0.817143 0.576435 0.576435 0.817143 297.282 306.135)" fill="#F0C4A2"/>
<rect width="20" height="41.2359" rx="10" transform="matrix(-0.47681 -0.879007 -0.879007 0.47681 340.153 332.04)" fill="#F0C4A2"/>
<rect width="38" height="46" rx="19" transform="matrix(0.499393 0.866376 0.866376 -0.499393 314.344 313.74)" fill="#F0C4A2"/>
<path d="M84.212 289.692C84.212 273.124 97.6435 259.692 114.212 259.692H246.212C262.781 259.692 276.212 273.124 276.212 289.692V347.692C276.212 364.261 262.781 377.692 246.212 377.692H114.212C97.6435 377.692 84.212 364.261 84.212 347.692V289.692Z" fill="#FAFAFA"/>
<path d="M105.235 261.295L100.446 341.693L33.2139 297.348L105.235 261.295Z" fill="#FAFAFA"/>
<path d="M256.029 261.295L260.817 341.693L328.05 297.348L256.029 261.295Z" fill="#FAFAFA"/>
<mask id="mask2_116_110" style="mask-type:alpha" maskUnits="userSpaceOnUse" x="33" y="259" width="296" height="119">
<path d="M84.212 289.692C84.212 273.124 97.6435 259.692 114.212 259.692H246.212C262.781 259.692 276.212 273.124 276.212 289.692V347.692C276.212 364.261 262.781 377.692 246.212 377.692H114.212C97.6435 377.692 84.212 364.261 84.212 347.692V289.692Z" fill="#7C2D2D"/>
<path d="M105.235 261.295L100.446 341.693L33.2139 297.348L105.235 261.295Z" fill="#7C2D2D"/>
<path d="M256.029 261.295L260.817 341.693L328.05 297.348L256.029 261.295Z" fill="#7C2D2D"/>
</mask>
<g mask="url(#mask2_116_110)">
<rect x="33.2119" y="259.692" width="295" height="26" fill="#F3C041"/>
<rect x="33.2119" y="305.692" width="295" height="26" fill="#F3C041"/>
<rect x="33.2119" y="351.692" width="295" height="26" fill="#F3C041"/>
<path d="M85.7119 330.692L86.7119 308.692" stroke="#E6AD1E" stroke-width="2" stroke-linecap="round"/>
<path d="M275.712 330.692L274.712 308.692" stroke="#E6AD1E" stroke-width="2" stroke-linecap="round"/>
</g>
<path d="M132.577 76.4641C149.996 76.928 163.351 89.1603 162.974 103.29C162.598 117.419 148.612 128.923 131.192 128.459C113.773 127.995 100.419 115.763 100.795 101.634C101.172 87.5043 115.158 76.0002 132.577 76.4641Z" fill="#FAFAFA" fill-opacity="0.3" stroke="#CE691B" stroke-width="3"/>
<path d="M226.271 78.9592C243.69 79.4231 257.044 91.6554 256.668 105.785C256.291 119.914 242.305 131.418 224.886 130.954C207.467 130.49 194.112 118.258 194.489 104.129C194.865 89.9994 208.851 78.4953 226.271 78.9592Z" fill="#FAFAFA" fill-opacity="0.3" stroke="#CE691B" stroke-width="3"/>
<path d="M163.462 103.053C169.479 100.325 182.792 96.6367 194.014 103.866" stroke="#CE691B" stroke-width="3" stroke-linecap="round"/>
<path d="M100.919 103.118C95.272 101.572 84.088 102.553 84.5282 118.848L85.1748 142.78" stroke="#CE691B" stroke-width="3" stroke-linecap="round"/>
<path d="M257.866 103.079C263.422 101.231 274.642 101.607 275.083 117.901L275.729 141.834" stroke="#CE691B" stroke-width="3" stroke-linecap="round"/>
</svg>
